####
#
# OBJ File Generated by Meshlab
#
####
# Object Palm_lod_100.obj
#
# Vertices: 114
# Faces: 99
#
####
mtllib Palm.obj.mtl

vn -0.621616 2.070953 -1.716929
v 3.274226 19.195950 2.591919 0.749020 0.749020 0.749020
vn -0.239933 2.191659 1.014938
v 10.239650 21.109764 12.007697 0.749020 0.749020 0.749020
vn 0.482933 3.184372 -0.159963
v 7.342544 21.457495 10.065595 0.749020 0.749020 0.749020
vn 1.018098 2.117287 1.556399
v 8.964126 17.810467 16.278967 0.749020 0.749020 0.749020
vn 1.342796 1.599722 0.588534
v 7.866000 18.882500 15.870500 0.749020 0.749020 0.749020
vn 0.448470 0.795238 0.748199
v 10.205250 17.054077 16.338982 0.749020 0.749020 0.749020
vn -0.455724 2.421158 -1.141017
v 5.683091 19.860661 2.521559 0.749020 0.749020 0.749020
vn 1.883955 0.004102 -2.065938
v 2.435281 14.284543 -0.557161 0.749020 0.749020 0.749020
vn -0.805177 0.281282 -1.641237
v 1.898201 11.178449 -0.826010 0.749020 0.749020 0.749020
vn -0.759457 0.218646 -1.008914
v 1.727050 11.149200 -0.703515 0.749020 0.749020 0.749020
vn -1.024480 2.023397 -0.846497
v 5.338840 22.912001 1.153700 0.749020 0.749020 0.749020
vn -0.360201 1.506869 -1.164259
v 3.511750 23.452000 3.281760 0.749020 0.749020 0.749020
vn -0.533534 2.864047 -1.448645
v 6.696254 25.167154 4.516407 0.749020 0.749020 0.749020
vn -0.572253 2.780383 0.484936
v 8.871639 25.632099 4.666370 0.749020 0.749020 0.749020
vn 0.477106 2.113791 1.041739
v 12.582761 24.586922 7.774327 0.749020 0.749020 0.749020
vn 0.752823 2.421899 1.419320
v 11.002063 24.100428 9.502298 0.749020 0.749020 0.749020
vn 0.018745 0.234667 0.240275
v 12.900200 22.257099 10.025000 0.749020 0.749020 0.749020
vn 1.472293 3.662053 3.373680
v 12.815186 22.391771 9.900104 0.749020 0.749020 0.749020
vn 0.598592 0.766484 0.563936
v 12.528189 22.081436 10.626534 0.749020 0.749020 0.749020
vn -1.746795 2.824319 -2.061071
v 3.834531 22.463743 1.902824 0.749020 0.749020 0.749020
vn -1.441513 -0.741789 2.490853
v 2.215044 14.230928 -0.753358 0.749020 0.749020 0.749020
vn -2.664129 0.408204 1.142128
v 3.455431 21.579872 1.334436 0.749020 0.749020 0.749020
vn -0.695684 0.967059 -2.577212
v 2.690820 19.567101 1.120530 0.749020 0.749020 0.749020
vn -0.051612 -0.028979 0.095627
v 2.242800 13.383000 -0.995337 0.749020 0.749020 0.749020
vn -0.328505 2.041644 1.265131
v 4.708067 24.937126 -6.639695 0.749020 0.749020 0.749020
vn -1.775210 1.738241 0.186578
v 4.757861 22.447899 -1.606972 0.749020 0.749020 0.749020
vn -0.439570 3.157792 -0.274518
v 9.123981 25.921911 -7.082283 0.749020 0.749020 0.749020
vn 0.173818 1.582528 -1.042191
v 16.790800 22.911301 -10.375100 0.749020 0.749020 0.749020
vn 0.793783 0.868996 -0.587820
v 16.126101 21.297501 -13.186400 0.749020 0.749020 0.749020
vn 1.345311 1.961353 0.413370
v 12.654085 24.991388 -12.414145 0.749020 0.749020 0.749020
vn 1.467259 2.355059 -1.107104
v 16.349651 21.662577 -12.344815 0.749020 0.749020 0.749020
vn -3.118196 0.497576 0.991433
v 2.114410 17.523300 -1.156150 0.749020 0.749020 0.749020
vn -1.630109 1.515345 2.170808
v 2.551737 20.217516 -1.956906 0.749020 0.749020 0.749020
vn -0.994591 0.532767 1.288442
v 1.924384 15.197027 -0.693001 0.749020 0.749020 0.749020
vn -1.010236 0.546417 1.203011
v 2.117760 15.178000 -0.521970 0.749020 0.749020 0.749020
vn -1.300040 1.225344 2.198221
v 3.693822 24.039448 -2.858400 0.749020 0.749020 0.749020
vn -1.686373 1.727452 -0.395489
v 5.276421 30.054543 -9.101939 0.749020 0.749020 0.749020
vn -0.280784 1.130884 -2.106767
v 8.371011 28.514029 -14.118817 0.749020 0.749020 0.749020
vn 0.130206 2.444154 -0.743235
v 6.456696 29.214857 -13.487488 0.749020 0.749020 0.749020
vn -0.140071 0.141132 -0.581392
v 8.613810 27.252701 -14.483500 0.749020 0.749020 0.749020
vn -0.922480 1.758693 1.680885
v 1.242770 26.044350 -5.425550 0.749020 0.749020 0.749020
vn -0.167472 0.085753 0.226870
v 2.214790 15.187100 -0.604152 0.749020 0.749020 0.749020
vn -0.544711 1.885434 1.504238
v 1.885540 22.531900 -4.252220 0.749020 0.749020 0.749020
vn 0.034491 2.472657 2.401464
v 1.228965 20.957376 -2.516447 0.749020 0.749020 0.749020
vn -0.536218 2.016627 1.014174
v -0.408771 25.709187 -9.065485 0.749020 0.749020 0.749020
vn 0.790915 1.870034 -1.332161
v -3.558628 25.779158 -10.941440 0.749020 0.749020 0.749020
vn 0.056091 0.764076 -0.746301
v -8.083260 20.928400 -16.247801 0.749020 0.749020 0.749020
vn 0.216564 1.492303 -1.518086
v -6.564869 20.806110 -16.258883 0.749020 0.749020 0.749020
vn 0.700589 1.496522 2.173845
v 0.266310 20.302694 -1.755504 0.749020 0.749020 0.749020
vn 0.093816 0.063320 0.173163
v 2.262600 14.789800 -0.821171 0.749020 0.749020 0.749020
vn -0.117256 -0.458020 -0.387678
v 2.488719 0.498909 -1.993988 0.749020 0.749020 0.749020
vn 0.220617 -0.444237 0.254796
v 3.505131 0.359916 -0.121325 0.749020 0.749020 0.749020
vn -2.387819 -0.041672 2.346422
v 1.922034 4.033031 -0.166583 0.749020 0.749020 0.749020
vn 2.151244 0.579189 0.590576
v 3.313691 5.752767 -0.611549 0.749020 0.749020 0.749020
vn -3.232866 -0.471141 1.477440
v 1.530607 6.604280 -0.704010 0.749020 0.749020 0.749020
vn -0.947765 -0.031625 -3.666124
v 2.201922 5.225540 -1.538388 0.749020 0.749020 0.749020
vn -2.317931 -0.011086 -1.881572
v 1.511717 9.265169 -1.265595 0.749020 0.749020 0.749020
vn -0.665766 0.477851 3.531965
v 1.985126 9.406267 -0.200795 0.749020 0.749020 0.749020
vn -0.005100 0.062000 0.001945
v 1.750092 14.727397 -0.841522 0.749020 0.749020 0.749020
vn 1.794228 0.506547 -1.126880
v 2.530979 11.617719 -1.276074 0.749020 0.749020 0.749020
vn 0.135868 0.794731 -1.171752
v 0.435548 18.862934 0.969234 0.749020 0.749020 0.749020
vn -1.595021 0.793316 -0.948972
v -6.817344 14.588695 1.593565 0.749020 0.749020 0.749020
vn -1.380729 -0.182362 -0.167851
v -6.302636 11.793119 0.396868 0.749020 0.749020 0.749020
vn -2.434630 0.206972 -0.094944
v -6.277966 12.254411 -0.307232 0.749020 0.749020 0.749020
vn -1.434731 0.313260 1.659231
v -6.567600 13.669600 -0.824862 0.749020 0.749020 0.749020
vn 0.031021 0.160596 -0.424491
v 1.991310 13.765579 -0.845533 0.749020 0.749020 0.749020
vn -0.285325 0.700502 1.251420
v -3.324080 19.400408 0.897832 0.749020 0.749020 0.749020
vn 1.186972 1.946124 -1.820920
v 0.956557 23.354761 2.758657 0.749020 0.749020 0.749020
vn -0.561783 1.806251 -1.318601
v -1.354733 26.171597 7.601939 0.749020 0.749020 0.749020
vn -1.322033 2.758462 -0.944091
v -5.420373 26.195881 9.367351 0.749020 0.749020 0.749020
vn 1.191903 2.182959 -0.381205
v -1.649547 25.096416 2.510831 0.749020 0.749020 0.749020
vn -1.417884 2.583020 0.331336
v -8.308932 24.607271 10.121295 0.749020 0.749020 0.749020
vn -3.526827 3.379634 0.246047
v -9.491479 22.977077 13.479565 0.749020 0.749020 0.749020
vn -0.438049 0.732742 0.139878
v -9.292150 22.881800 14.602900 0.749020 0.749020 0.749020
vn -0.362074 0.192963 -0.033828
v -10.104035 21.938593 14.112231 0.749020 0.749020 0.749020
vn 0.093434 0.111090 -0.201831
v 2.000507 15.791143 -0.921146 0.749020 0.749020 0.749020
vn -1.134666 1.770478 -0.297548
v 3.803540 15.957900 0.969593 0.749020 0.749020 0.749020
vn 1.112458 1.546012 -0.721289
v 1.740054 16.501198 1.170623 0.749020 0.749020 0.749020
vn -1.414113 1.713229 -2.040435
v 2.465967 14.926724 -0.065450 0.749020 0.749020 0.749020
vn -0.892525 1.601582 0.621425
v 3.324970 16.671595 7.041203 0.749020 0.749020 0.749020
vn 0.113526 0.021286 0.250531
v 1.421238 10.032911 8.467916 0.749020 0.749020 0.749020
vn 0.292688 0.911910 2.334761
v 1.528370 14.744694 8.019035 0.749020 0.749020 0.749020
vn -0.161862 0.060819 -0.172527
v 1.921886 11.386428 -0.803030 0.749020 0.749020 0.749020
vn 1.309367 1.885911 0.475906
v -0.706945 16.703899 -1.112220 0.749020 0.749020 0.749020
vn 1.132679 2.397635 -0.389586
v -3.141834 19.249575 -4.501029 0.749020 0.749020 0.749020
vn -1.289987 2.764633 -0.123830
v -3.853172 18.940250 -7.006378 0.749020 0.749020 0.749020
vn -2.236612 4.611268 -2.371236
v -6.954629 16.724831 -9.305370 0.749020 0.749020 0.749020
vn -0.842342 1.926760 -0.812517
v -7.514740 16.700199 -8.783110 0.749020 0.749020 0.749020
vn -0.359213 0.458596 -0.363617
v -7.269280 16.092501 -9.792030 0.749020 0.749020 0.749020
vn -1.535548 2.345678 -1.278938
v -6.388061 16.329802 -10.366615 0.749020 0.749020 0.749020
vn -0.696477 0.813199 -0.674528
v -6.890294 15.928399 -10.331963 0.749020 0.749020 0.749020
vn -1.395880 1.610013 -0.197741
v -5.377860 17.201900 -10.397100 0.749020 0.749020 0.749020
vn 0.895546 1.922570 1.707939
v 1.069446 16.631989 -2.126358 0.749020 0.749020 0.749020
vn 2.028810 1.889830 2.031946
v 0.683331 15.742909 -1.129115 0.749020 0.749020 0.749020
vn 1.426893 0.587069 0.978830
v 2.067335 11.906171 -0.746650 0.749020 0.749020 0.749020
vn 1.189232 0.484945 0.800922
v 2.154960 11.885900 -0.864484 0.749020 0.749020 0.749020
vn 1.532218 1.632967 1.235680
v -1.073080 25.535801 -2.923850 0.749020 0.749020 0.749020
vn 1.221430 2.141109 0.939901
v -3.937589 28.106007 -2.768476 0.749020 0.749020 0.749020
vn -0.717829 2.598327 0.646808
v -13.472101 27.542124 -1.509771 0.749020 0.749020 0.749020
vn -0.037994 2.978880 -0.365746
v -7.782085 28.823124 -0.093466 0.749020 0.749020 0.749020
vn -0.754859 2.720336 0.977472
v -16.130949 25.739315 1.250990 0.749020 0.749020 0.749020
vn -0.696400 2.099007 0.490005
v -15.179700 25.899000 1.918880 0.749020 0.749020 0.749020
vn -0.253004 1.064800 0.451662
v -17.306330 25.857580 0.313773 0.749020 0.749020 0.749020
vn 2.550260 1.263050 1.679586
v 0.673768 22.598829 -1.208661 0.749020 0.749020 0.749020
vn 2.303307 1.934219 0.792072
v -0.524123 23.841925 -0.228712 0.749020 0.749020 0.749020
vn 0.145232 0.047483 0.117298
v 2.146380 17.573299 -0.997591 0.749020 0.749020 0.749020
vn 0.749160 0.794352 2.362137
v 1.955644 17.033915 -1.874579 0.749020 0.749020 0.749020
vn 0.363070 2.850092 -0.164404
v 6.799140 23.387638 -9.558911 0.749020 0.749020 0.749020
vn 2.066806 2.836360 0.121696
v 7.250288 22.756212 -12.085415 0.749020 0.749020 0.749020
vn 0.937360 1.938459 1.227836
v 4.895579 23.634600 -8.228593 0.749020 0.749020 0.749020
vn 0.699965 1.037935 0.190961
v 7.049610 22.940500 -12.351500 0.749020 0.749020 0.749020
vn 1.094193 1.012268 -0.057601
v 7.522885 22.470453 -11.928993 0.749020 0.749020 0.749020
vn -1.863860 1.713444 0.993145
v 3.678210 20.104204 -3.453391 0.749020 0.749020 0.749020
vn 0.089623 0.055847 0.206389
v 2.230020 11.783100 -0.572894 0.749020 0.749020 0.749020
# 114 vertices, 0 vertices normals


usemtl material_0
vt 0.243636 0.181588
vt 0.458482 -0.014276
vt 0.760508 0.124905
f 7/1/7 8/2/8 1/3/1
vt 0.656811 0.589379
vt 0.217766 0.730650
f 3/4/3 2/5/2 7/1/7
f 7/1/7 1/3/1 3/4/3
vt 0.857348 0.971491
f 2/5/2 3/4/3 4/6/4
vt 1.000000 0.916667
f 5/7/5 4/6/4 3/4/3
vt 0.317810 0.999734
f 4/6/4 6/8/6 2/5/2
vt 0.477914 0.000000
f 8/2/8 7/1/7 9/9/9
vt 0.583333 0.000000
f 9/9/9 10/10/10 8/2/8
vt 0.515564 0.054542
vt 0.000000 0.083333
vt 0.284627 -0.001523
f 20/11/20 11/12/11 22/13/22
vt 0.220061 0.468226
f 20/11/20 14/14/14 11/12/11
vt 1.000000 0.083333
vt 0.620739 0.345657
f 20/11/20 12/15/12 13/16/13
f 14/14/14 20/11/20 13/16/13
vt 0.696216 0.827932
f 16/17/16 14/14/14 13/16/13
vt 0.010874 0.791033
f 16/17/16 15/18/15 14/14/14
vt 0.156743 0.973385
f 18/19/18 15/18/15 16/17/16
vt 0.000000 1.000000
f 18/19/18 17/20/17 15/18/15
vt 0.465037 0.997262
f 18/19/18 16/17/16 19/21/19
vt 0.430501 0.000000
f 22/13/22 21/22/21 20/11/20
f 21/22/21 23/10/23 20/11/20
f 21/22/21 24/10/24 23/10/23
vt 0.124363 0.305885
vt 0.530731 0.101756
vt 0.591688 0.507303
f 25/23/25 33/24/33 27/25/27
vt 0.915045 0.145917
f 33/24/33 26/26/26 27/25/27
vt 0.157021 0.810282
f 27/25/27 30/27/30 25/23/25
vt 0.615380 0.964144
f 30/27/30 27/25/27 31/28/31
vt 0.999501 0.924484
f 28/29/28 31/28/31 27/25/27
vt 0.448899 0.984969
f 31/28/31 29/30/29 30/27/30
vt 0.636214 0.445588
vt 0.694097 0.223913
vt 0.694097 0.469624
f 33/31/33 32/32/32 26/33/26
vt 0.752208 0.007753
f 32/32/32 33/31/33 34/34/34
vt 0.047140 0.328571
vt 0.024478 0.223913
vt 0.000500 0.000500
f 26/35/26 32/36/32 34/37/34
vt 0.004730 0.011483
f 34/37/34 35/38/35 26/35/26
vt 0.685931 0.393625
vt 0.040204 0.141181
vt 0.875698 0.056692
f 37/39/37 41/40/41 36/41/36
vt 0.348716 0.651344
f 41/40/41 37/39/37 39/42/39
vt 0.639383 0.868512
f 39/42/39 37/39/37 38/43/38
f 38/43/38 40/20/40 39/42/39
f 41/40/41 42/10/42 36/41/36
vt 0.640816 0.031739
vt 0.944040 0.404830
f 44/44/44 43/15/43 45/45/45
vt 0.197438 0.012201
vt 0.420987 0.545168
f 49/46/49 44/44/44 46/47/46
f 44/44/44 45/45/45 46/47/46
vt 0.587150 0.929417
f 46/47/46 45/45/45 48/48/48
f 48/48/48 47/20/47 46/47/46
f 49/46/49 50/10/50 44/44/44

usemtl material_1
vt 0.373356 -0.441707
vt 0.685020 -0.423675
vt 0.421567 0.202207
f 52/49/52 51/50/51 54/51/54
vt 0.396265 -0.421945
vt 0.621034 -0.001387
vt 0.383367 0.120248
f 51/52/51 53/53/53 56/54/56
vt 0.677711 -0.251970
f 51/52/51 52/55/52 53/53/53
vt 0.499479 -0.438097
vt 0.587112 0.140680
vt 0.474648 0.051950
f 51/56/51 56/57/56 54/58/54
vt 0.558466 0.232966
vt 0.334460 0.075367
vt 0.533648 -0.259912
f 54/59/54 53/60/53 52/61/52
vt 0.579567 0.332605
f 56/54/56 53/53/53 55/62/55
vt 0.291674 0.349741
f 54/59/54 55/63/55 53/60/53
vt 0.587654 0.271044
vt 0.538893 0.455811
f 56/64/56 57/65/57 54/51/54
vt 0.610855 0.543046
vt 0.685614 0.335413
f 57/66/57 56/57/56 55/67/55
vt 0.473413 0.812908
vt 0.259034 0.712227
f 60/68/60 58/69/58 54/51/54
f 60/68/60 54/51/54 57/65/57
vt 0.681093 0.508457
vt 0.565022 0.676385
f 58/70/58 57/71/57 55/62/55
vt 0.433849 0.706122
f 55/63/55 54/59/54 58/72/58
vt 0.702002 0.954523
vt 0.537774 1.000229
f 59/73/59 60/74/60 57/66/57
vt 0.375325 1.461381
f 60/68/60 59/75/59 58/69/58
vt 0.671533 1.348043
vt 0.705388 0.849067
f 59/76/59 57/71/57 58/77/58

usemtl material_0
vt 0.325093 0.121431
vt 0.799816 0.385166
vt 0.348662 0.777775
f 61/78/61 67/79/67 62/80/62
vt 0.715455 0.979106
f 62/80/62 67/79/67 64/81/64
f 65/7/65 64/81/64 67/79/67
vt 0.152894 0.996392
f 62/80/62 64/81/64 63/82/63
vt 0.499539 0.000000
f 66/83/66 67/79/67 61/78/61
vt 0.418039 0.595353
vt 0.039571 0.392859
vt 0.263527 0.108143
f 70/84/70 69/85/69 68/86/68
vt 0.865581 0.193675
f 71/87/71 70/84/70 68/86/68
vt 0.703555 0.748822
f 72/88/72 70/84/70 71/87/71
vt 0.464177 0.929490
f 70/84/70 72/88/72 73/89/73
f 73/89/73 74/20/74 70/84/70
vt 0.647312 0.998961
f 73/89/73 72/88/72 75/90/75
vt 0.522068 0.000000
f 68/86/68 76/91/76 71/87/71
vt 0.355678 0.009911
vt 0.381195 0.534415
f 77/12/77 79/92/79 80/93/80
vt 0.832542 0.090471
f 78/94/78 80/93/80 79/92/79
vt 0.748190 0.687240
f 78/94/78 82/95/82 80/93/80
vt 0.421911 0.998023
f 81/96/81 80/93/80 82/95/82
vt 0.499620 0.000000
f 83/97/83 78/94/78 79/92/79
vt 0.206203 0.012500
vt 0.356053 0.423882
f 84/12/84 94/98/94 85/99/85
vt 0.780626 0.051686
f 94/98/94 93/100/93 85/99/85
vt 0.706579 0.613707
f 85/99/85 93/100/93 86/101/86
vt 0.279196 0.917884
f 85/99/85 86/101/86 87/102/87
vt 0.000000 0.916667
f 87/102/87 88/103/88 85/99/85
vt 0.739208 0.970031
f 87/102/87 86/101/86 90/104/90
f 92/7/92 90/104/90 86/101/86
f 87/102/87 89/20/89 88/103/88
vt 0.464654 0.997273
f 87/102/87 90/104/90 91/105/91
vt 0.476688 0.000000
f 93/100/93 94/98/94 95/106/95
f 95/106/95 96/10/96 93/100/93
vt 0.882777 0.266080
vt 0.259131 0.043176
vt 0.665232 -0.005493
f 98/107/98 105/108/105 104/109/104
f 97/15/97 98/107/98 104/109/104
vt 0.309102 0.498205
f 98/107/98 100/110/100 105/108/105
vt 0.776868 0.796553
f 100/110/100 98/107/98 99/111/99
vt 0.107588 0.963757
f 101/112/101 102/103/102 100/110/100
f 100/110/100 99/111/99 101/112/101
vt 0.502658 0.996924
f 101/112/101 99/111/99 103/113/103
f 105/108/105 106/10/106 104/109/104
vt 0.973246 0.094730
vt 0.413442 0.481419
vt 0.350971 -0.008400
f 113/114/113 110/115/110 107/116/107
vt 0.729990 0.648307
f 110/115/110 113/114/113 108/117/108
vt 0.449195 0.959150
f 110/115/110 108/117/108 109/118/109
f 109/118/109 111/20/111 110/115/110
vt 0.842523 0.996489
f 109/118/109 108/117/108 112/119/112
f 107/116/107 114/10/114 113/114/113
# 99 faces, 119 coords texture

# End of File