####
#
# OBJ File Generated by Meshlab
#
####
# Object Palm_lod_10.obj
#
# Vertices: 78
# Faces: 56
#
####
mtllib Palm.obj.mtl

vn 0.515939 1.661711 -1.448076
v 5.191641 22.019520 5.796206 0.749020 0.749020 0.749020
vn 1.288884 2.322200 1.003600
v 8.964126 17.810467 16.278967 0.749020 0.749020 0.749020
vn 1.529840 1.602461 0.092871
v 7.866000 18.882500 15.870500 0.749020 0.749020 0.749020
vn 0.509682 0.874924 0.486625
v 10.205250 17.054077 16.338982 0.749020 0.749020 0.749020
vn -0.429890 1.897604 0.323260
v 8.770102 22.721693 7.652069 0.749020 0.749020 0.749020
vn 0.075229 0.081105 -0.175743
v 1.727050 11.149200 -0.703515 0.749020 0.749020 0.749020
vn 0.211312 1.694848 -1.330073
v 3.511750 23.452000 3.281760 0.749020 0.749020 0.749020
vn 1.186033 2.299532 -0.281022
v 8.960210 25.809017 7.150805 0.749020 0.749020 0.749020
vn 0.251048 -0.016449 -0.188620
v 12.900200 22.257099 10.025000 0.749020 0.749020 0.749020
vn 3.223582 1.676709 -0.787268
v 12.815186 22.391771 9.900104 0.749020 0.749020 0.749020
vn 0.375405 0.827088 0.501651
v 12.528189 22.081436 10.626534 0.749020 0.749020 0.749020
vn -0.819495 2.025455 -0.233567
v 8.173697 25.826817 3.422847 0.749020 0.749020 0.749020
vn 0.063234 1.641547 -2.735853
v 3.683233 22.309134 1.852705 0.749020 0.749020 0.749020
vn 0.029487 0.077667 -0.258331
v 2.242800 13.383000 -0.995337 0.749020 0.749020 0.749020
vn -0.497764 2.592336 0.804450
v 8.084200 26.008829 -5.602377 0.749020 0.749020 0.749020
vn 0.012167 1.656346 -1.052785
v 16.790800 22.911301 -10.375100 0.749020 0.749020 0.749020
vn 0.355675 1.073739 -0.560261
v 16.126101 21.297501 -13.186400 0.749020 0.749020 0.749020
vn -0.041309 1.845159 0.459283
v 6.251651 26.839094 -8.834623 0.749020 0.749020 0.749020
vn 0.660472 2.658079 -1.338310
v 16.349651 21.662577 -12.344815 0.749020 0.749020 0.749020
vn -0.156107 0.144980 0.125747
v 2.117760 15.178000 -0.521970 0.749020 0.749020 0.749020
vn -0.762552 1.149667 -0.676880
v 6.704183 31.592701 -10.962282 0.749020 0.749020 0.749020
vn -0.087223 1.384779 1.210216
v 2.849960 29.967558 -9.380508 0.749020 0.749020 0.749020
vn -0.275437 0.230876 -0.433936
v 8.613810 27.252701 -14.483500 0.749020 0.749020 0.749020
vn 0.026778 0.096406 0.164297
v 2.214790 15.187100 -0.604152 0.749020 0.749020 0.749020
vn -1.079427 1.604758 1.047375
v 1.885540 22.531900 -4.252220 0.749020 0.749020 0.749020
vn -2.179862 0.713515 1.636585
v 1.228965 20.957376 -2.516447 0.749020 0.749020 0.749020
vn -0.279959 0.287507 0.015418
v -8.083260 20.928400 -16.247801 0.749020 0.749020 0.749020
vn -1.203355 1.927112 0.014079
v -3.944767 24.825663 -13.775382 0.749020 0.749020 0.749020
vn 1.491764 1.177686 -0.481378
v -2.686122 25.774134 -8.607432 0.749020 0.749020 0.749020
vn -0.324376 0.003765 0.211476
v 2.262600 14.789800 -0.821171 0.749020 0.749020 0.749020
vn 0.000511 -0.011093 0.000489
v 2.678795 0.188971 -0.665954 0.749020 0.749020 0.749020
vn -1.340584 -0.166877 -1.525175
v 1.953384 6.735904 -1.346252 0.749020 0.749020 0.749020
vn -0.000886 0.009004 0.000174
v 1.646490 14.554920 -0.809002 0.749020 0.749020 0.749020
vn 1.551993 0.150279 0.278223
v 2.989955 7.301328 -0.801793 0.749020 0.749020 0.749020
vn -0.086811 0.023684 -1.057124
v -3.931934 19.776854 0.896516 0.749020 0.749020 0.749020
vn -1.014915 0.291638 0.155507
v -6.302636 11.793119 0.396868 0.749020 0.749020 0.749020
vn -2.374328 0.661760 0.776585
v -6.277966 12.254411 -0.307232 0.749020 0.749020 0.749020
vn -1.434731 0.313260 1.659231
v -6.567600 13.669600 -0.824862 0.749020 0.749020 0.749020
vn -0.009702 -0.015593 0.020819
v 1.991310 13.765579 -0.845533 0.749020 0.749020 0.749020
vn -0.935459 -1.322391 0.508160
v -3.324080 19.400408 0.897832 0.749020 0.749020 0.749020
vn 0.166979 1.649511 -2.199729
v 0.956557 23.354761 2.758657 0.749020 0.749020 0.749020
vn -0.561783 1.806251 -1.318601
v -1.354733 26.171597 7.601939 0.749020 0.749020 0.749020
vn -1.689585 2.591549 -0.579164
v -5.420373 26.195881 9.367351 0.749020 0.749020 0.749020
vn 1.079693 1.802121 0.234387
v -3.537836 26.808453 4.568448 0.749020 0.749020 0.749020
vn -3.473334 2.522974 -0.944540
v -9.491479 22.977077 13.479565 0.749020 0.749020 0.749020
vn -0.438049 0.732742 0.139878
v -9.292150 22.881800 14.602900 0.749020 0.749020 0.749020
vn -0.415436 0.102908 -0.233313
v -10.104035 21.938593 14.112231 0.749020 0.749020 0.749020
vn -0.008692 0.129981 -0.269635
v 2.000507 15.791143 -0.921146 0.749020 0.749020 0.749020
vn -1.134666 1.770478 -0.297548
v 3.803540 15.957900 0.969593 0.749020 0.749020 0.749020
vn -0.313797 2.099820 0.573571
v 1.438279 17.006882 6.118304 0.749020 0.749020 0.749020
vn -2.305772 1.317448 -0.646074
v 2.465967 14.926724 -0.065450 0.749020 0.749020 0.749020
vn -0.403425 1.637338 1.065231
v 3.324970 16.671595 7.041203 0.749020 0.749020 0.749020
vn -0.110414 0.086962 0.257315
v 1.421238 10.032911 8.467916 0.749020 0.749020 0.749020
vn -0.679268 0.137551 -0.159159
v 1.921886 11.386428 -0.803030 0.749020 0.749020 0.749020
vn 1.479077 1.879068 0.278351
v -0.706945 16.703899 -1.112220 0.749020 0.749020 0.749020
vn -0.095245 2.119467 1.026636
v -1.314577 19.591253 -4.743124 0.749020 0.749020 0.749020
vn -2.605813 1.875056 0.645748
v -6.954629 16.724831 -9.305370 0.749020 0.749020 0.749020
vn -0.264978 2.792849 0.031220
v -3.349031 19.301212 -4.606644 0.749020 0.749020 0.749020
vn -0.282769 -0.045485 0.241925
v -7.269280 16.092501 -9.792030 0.749020 0.749020 0.749020
vn -1.407362 2.497594 -1.078621
v -6.388061 16.329802 -10.366615 0.749020 0.749020 0.749020
vn -0.696477 0.813199 -0.674528
v -6.890294 15.928399 -10.331963 0.749020 0.749020 0.749020
vn -1.435928 1.674649 0.324241
v -5.377860 17.201900 -10.397100 0.749020 0.749020 0.749020
vn 2.578508 1.137512 -0.626084
v 1.267141 15.139481 -1.041005 0.749020 0.749020 0.749020
vn 0.368663 0.092698 -0.145623
v 2.154960 11.885900 -0.864484 0.749020 0.749020 0.749020
vn 0.795796 1.458316 1.686634
v -1.073080 25.535801 -2.923850 0.749020 0.749020 0.749020
vn 0.031578 2.420875 0.667805
v -8.801145 29.193150 -2.439811 0.749020 0.749020 0.749020
vn -0.682456 2.730149 1.007551
v -16.130949 25.739315 1.250990 0.749020 0.749020 0.749020
vn -0.592519 2.272105 0.300667
v -15.179700 25.899000 1.918880 0.749020 0.749020 0.749020
vn -0.236591 0.946846 0.416193
v -17.306330 25.857580 0.313773 0.749020 0.749020 0.749020
vn 1.304011 0.928332 2.601422
v 0.673768 22.598829 -1.208661 0.749020 0.749020 0.749020
vn 1.008717 2.269646 -0.548155
v -5.455094 28.653162 0.270125 0.749020 0.749020 0.749020
vn 0.125580 0.050051 0.315553
v 2.146380 17.573299 -0.997591 0.749020 0.749020 0.749020
vn 0.344907 1.495724 1.590843
v 3.037513 22.682726 -6.407775 0.749020 0.749020 0.749020
vn -0.116623 2.680086 0.637832
v 5.601298 23.058947 -7.282758 0.749020 0.749020 0.749020
vn 1.632232 2.963257 0.780762
v 7.250288 22.756212 -12.085415 0.749020 0.749020 0.749020
vn 0.498306 1.096972 0.383938
v 7.049610 22.940500 -12.351500 0.749020 0.749020 0.749020
vn 1.047939 1.156718 0.286896
v 7.522885 22.470453 -11.928993 0.749020 0.749020 0.749020
vn 0.044010 0.085438 0.165689
v 2.230020 11.783100 -0.572894 0.749020 0.749020 0.749020
# 78 vertices, 0 vertices normals


usemtl material_0
vt 0.240594 0.484472
vt 0.737125 0.336248
vt 0.857348 0.971491
f 5/1/5 1/2/1 2/3/2
vt 1.000000 0.916667
f 3/4/3 2/3/2 1/2/1
vt 0.317810 0.999734
f 2/3/2 4/5/4 5/1/5
vt 0.583333 0.000000
f 5/1/5 6/6/6 1/2/1
vt 0.534923 0.043930
vt 1.000000 0.083333
vt 0.704332 0.591599
f 13/7/13 7/8/7 8/9/8
vt 0.093903 0.355517
f 12/10/12 13/7/13 8/9/8
vt 0.156743 0.973385
f 10/11/10 12/10/12 8/9/8
vt 0.000000 1.000000
f 10/11/10 9/12/9 12/10/12
vt 0.465037 0.997262
f 10/11/10 8/9/8 11/13/11
f 12/10/12 14/6/14 13/7/13
vt -0.011224 0.451999
vt 0.695154 0.422933
vt 0.615380 0.964144
f 18/14/18 15/15/15 19/16/19
vt 0.999501 0.924484
f 16/17/16 19/16/19 15/15/15
vt 0.448899 0.984969
f 19/16/19 17/18/17 18/14/18
vt 0.077154 0.481933
vt 0.004730 0.011483
vt 0.047140 0.328571
f 18/19/18 20/20/20 15/21/15
vt 1.064515 0.493380
vt 0.183082 0.326277
f 21/22/21 23/12/23 22/23/22
f 22/23/22 24/6/24 21/22/21
vt 0.640816 0.031739
vt 0.541433 0.694753
f 26/24/26 25/8/25 28/25/28
vt 0.453270 0.419149
f 26/24/26 28/25/28 29/26/29
f 28/25/28 27/12/27 29/26/29
f 29/26/29 30/6/30 26/24/26

usemtl material_1
vt 0.499479 -0.438097
vt 0.628933 0.340345
vt 0.474648 0.051950
f 31/27/31 32/28/32 34/29/34
vt 0.383367 0.120248
vt 0.531181 -0.406373
vt 0.648330 0.412536
f 32/30/32 31/31/31 33/32/33
vt 0.558466 0.232966
vt 0.347079 0.481946
vt 0.414525 -0.304528
f 34/33/34 33/34/33 31/35/31
vt 0.702002 0.954523
vt 0.537774 1.000229
f 33/36/33 34/37/34 32/28/32

usemtl material_0
vt 0.983884 0.413690
vt 0.799816 0.385166
vt 0.715455 0.979106
f 35/38/35 40/39/40 37/40/37
f 38/4/38 37/40/37 40/39/40
vt 0.152894 0.996392
f 35/38/35 37/40/37 36/41/36
vt 0.499539 0.000000
f 39/42/39 40/39/40 35/38/35
vt 0.418039 0.595353
vt 0.039571 0.392859
vt 0.263527 0.108143
f 43/43/43 42/44/42 41/45/41
vt 0.868652 0.357383
f 44/46/44 43/43/43 41/45/41
vt 0.464177 0.929490
f 43/43/43 44/46/44 45/47/45
f 45/47/45 46/12/46 43/43/43
vt 0.647312 0.998961
f 45/47/45 44/46/44 47/48/47
vt 0.522068 0.000000
f 41/45/41 48/49/48 44/46/44
vt 0.000000 0.083333
vt 0.355678 0.009911
vt 0.381195 0.534415
f 49/50/49 51/51/51 52/52/52
vt 0.916983 0.484414
f 50/53/50 52/52/52 51/51/51
vt 0.421911 0.998023
f 53/54/53 52/52/52 50/53/50
vt 0.499620 0.000000
f 54/55/54 50/53/50 51/51/51
vt 0.316887 -0.011424
vt 0.341556 0.438700
f 55/50/55 63/56/63 58/57/58
vt 0.865690 0.348841
f 63/56/63 56/58/56 58/57/58
vt 0.279196 0.917884
f 58/57/58 56/58/56 57/59/57
vt 0.739208 0.970031
f 57/59/57 56/58/56 60/60/60
f 62/4/62 60/60/60 56/58/56
f 57/59/57 59/12/59 58/57/58
vt 0.464654 0.997273
f 57/59/57 60/60/60 61/61/61
f 63/56/63 64/6/64 56/58/56
vt 0.778045 0.560221
vt 0.188142 0.344978
vt 0.665232 -0.005493
f 66/62/66 71/63/71 70/64/70
f 65/8/65 66/62/66 70/64/70
vt 0.107588 0.963757
vt 0.000000 0.916667
f 67/65/67 68/66/68 71/63/71
f 71/63/71 66/62/66 67/65/67
vt 0.502658 0.996924
f 67/65/67 66/62/66 69/67/69
f 71/63/71 72/6/72 70/64/70
vt 0.358096 0.294862
vt 0.871768 0.410850
vt 0.449195 0.959150
f 73/68/73 74/69/74 75/70/75
f 75/70/75 76/12/76 73/68/73
vt 0.842523 0.996489
f 75/70/75 74/69/74 77/71/77
f 73/68/73 78/6/78 74/69/74
# 56 faces, 71 coords texture

# End of File